<?xml version="1.0" encoding="UTF-8" standalone="no"?>
<!-- Generator: Adobe Illustrator 14.0.0, SVG Export Plug-In . SVG Version: 6.00 Build 43363)  -->
<svg xmlns:dc="http://purl.org/dc/elements/1.1/" xmlns:cc="http://creativecommons.org/ns#" xmlns:rdf="http://www.w3.org/1999/02/22-rdf-syntax-ns#" xmlns:svg="http://www.w3.org/2000/svg" xmlns="http://www.w3.org/2000/svg" xmlns:sodipodi="http://sodipodi.sourceforge.net/DTD/sodipodi-0.dtd" xmlns:inkscape="http://www.inkscape.org/namespaces/inkscape" version="1.1" id="Layer_1" x="0px" y="0px" width="595.28px" height="841.89px" viewBox="0 0 595.28 841.89" enable-background="new 0 0 595.28 841.89" xml:space="preserve" inkscape:version="0.48.2 r9819" sodipodi:docname="application copy.svg"><metadata id="metadata47"><rdf:RDF><cc:Work rdf:about=""><dc:format>image/svg+xml</dc:format><dc:type rdf:resource="http://purl.org/dc/dcmitype/StillImage"/></cc:Work></rdf:RDF></metadata><defs id="defs45"/><sodipodi:namedview pagecolor="#ffffff" bordercolor="#666666" borderopacity="1" objecttolerance="10" gridtolerance="10" guidetolerance="10" inkscape:pageopacity="0" inkscape:pageshadow="2" inkscape:window-width="1392" inkscape:window-height="945" id="namedview43" showgrid="false" inkscape:zoom="0.79286936" inkscape:cx="334.11693" inkscape:cy="382.84786" inkscape:window-x="0" inkscape:window-y="0" inkscape:window-maximized="0" inkscape:current-layer="Layer_1"/>
<g id="g3" inkscape:export-xdpi="94.245071" inkscape:export-ydpi="94.245071">
	<path fill-rule="evenodd" clip-rule="evenodd" fill="#F00000" d="M288.969,252.879c81.345-15.979,176.316-23.658,226.972-66.992   c-6.644,43.92,8.838,116.569,0,155.98c-2.581,11.511-16.326,16.881-23.997,22.997c-60.689,25.633-133.881,38.764-210.974,47.994   c1.022-2.311,4.597-2.068,7.999-2c0-10.666,0-21.331,0-31.996c5.016-0.649,12.643,1.311,15.998-1c3.666,0,7.332,0,10.998,0   c-0.168,2.168,3.547,0.453,5,1c4.291-7.707,0.937-23.06,2-33.996c0-0.333,0-0.667,0-1c6.332,0,12.665,0,18.997,0   c1.387,1.963,8.485,1.22,9.999,0c-16.599-22.074-39.975-46.007-62.992-64.992C288.969,270.21,288.969,261.545,288.969,252.879z" id="path5"/>
	<path fill-rule="evenodd" clip-rule="evenodd" fill="#D76262" d="M341.962,343.868c-6.332,0-12.665,0-18.997,0c0,0.333,0,0.667,0,1   c-2.943,8.389,0.926,23.59-2,31.996c-2.409-0.41-2.174,1.826-5,1c-3.666,0-7.332,0-10.998,0c-14.665,0-29.33,0-43.995,0   c-2.885-8.78,0.886-24.216-2-32.996c-7.34-2.325-18.992-0.339-27.996-1c14.286-22.054,39.719-41.595,58.993-61.992   c21.58,19.081,41.911,39.412,60.992,60.992C348.469,343.709,345.604,344.177,341.962,343.868z M288.969,285.875   c-19.74,17.922-39.582,35.743-55.993,56.993c9.068,0.598,20.57-1.239,27.997,1c0.615,10.717-1.264,23.928,1,32.996   c18.879-0.451,39.696,1.034,56.993-1c0.862-11.469-2.521-27.184,4-32.996c7.477-0.188,15.979,0.648,21.997-1   C328.379,321.122,309.715,302.458,288.969,285.875z" id="path7"/>
	<path clip-rule="evenodd" d="M344.962,341.868c-6.018,1.648-14.521,0.811-21.997,1   c-6.521,5.812-3.138,21.527-4,32.996c-17.297,2.034-38.113,0.549-56.993,1c-2.264-9.068-0.385-22.279-1-32.996   c-7.427-2.239-18.928-0.402-27.997-1c16.412-21.25,36.253-39.07,55.993-56.993C309.715,302.458,328.379,321.122,344.962,341.868z    M289.969,295.874c-12.187,11.811-24.349,23.646-34.996,36.996c3.581,1.752,9.574,1.091,12.999,3c2.602,8.73-0.682,23.346,2,31.996   c13.502-0.496,29.093,1.097,40.995-1c0.922-10.744-2.087-25.417,2-32.996c5.428,0.762,8.099-1.234,12.998-1   C314.685,319.818,303.621,306.553,289.969,295.874z" id="path9" fill-rule="evenodd" fill="#DFC3C3"/>
	<path fill-rule="evenodd" clip-rule="evenodd" fill="#D10101" d="M319.965,331.869c-4.446-0.447-7.288,0.711-9.999,2   c0,2.333,0,4.666,0,6.999c-1.963-1.386-1.22-8.485,0-9.999C313.005,331.497,318.579,329.589,319.965,331.869z" id="path11"/>
	<path fill-rule="evenodd" clip-rule="evenodd" fill="#D10101" d="M322.965,344.868c-1.063,10.936,2.291,26.289-2,33.996   c-1.453-0.547-5.168,1.168-5-1c2.826,0.827,2.591-1.409,5-1C323.891,368.458,320.022,353.257,322.965,344.868z" id="path13"/>
	<path fill-rule="evenodd" clip-rule="evenodd" fill="#1C1818" d="M491.944,365.865c2.039,0.294,1.961,2.706,3.999,3   c7.951,5.381,16.562,10.102,19.998,19.998c0,4,0,7.999,0,11.999c-25.678,30.115-73.114,39.385-118.985,49.993   c-47.164,10.908-98.915,18.042-147.981,24.997c-3.202-1.464-5.906-3.427-10.999-2.999c-32.84-4.489-64.782-9.876-98.988-12.999   c-13.091-3.24-28.049-4.613-41.995-6.999c-3.201-1.131-6.632-2.033-10.999-2c-0.638-2.028-4.674-0.658-5-2.999c0-0.333,0-0.667,0-1   C216.466,418.346,378.106,416.006,491.944,365.865z" id="path15"/>
	<path fill-rule="evenodd" clip-rule="evenodd" fill="#DFC3C3" d="M222.978,558.841c16.161-6.837,29.304-16.69,47.994-20.998   c-0.067,5.066,1.719,8.28,1,13.998c14.377,0.326,42.343,5.721,47.994-5.999c1.119-12.546-2.371-29.701,2-38.995   c3.799,0.2,7.113,0.885,9.998,2c2.296,13.369,0.361,30.969,1,45.994c-5.584,18.08-36.907,10.42-58.992,11.999   c-2.985,3.014-0.939,11.06-3,14.998C253.063,576.083,236.698,568.784,222.978,558.841z" id="path17"/>
	<path fill-rule="evenodd" clip-rule="evenodd" fill="#DFC3C3" d="M515.941,177.889c6.962,48.364,1.027,109.625,2.999,162.979   c-5.013,10.985-13.02,18.976-23.997,23.997c7.729,7.603,18.147,12.515,22.998,22.997c1.434,55.563,1.833,117.479,0,172.978   c-16.638,30.126-56.072,39.016-90.989,47.994c-107.936,27.755-237.68,37.524-349.956,57.993c0-54.66,0-109.32,0-163.979   c49.526-16.284,108.595-16.297,163.979-26.997c-49.827-10.342-116.946-11.354-163.979-26.996c0-55.327,0-110.653,0-165.979   c103.263-22.239,226.96-30.64,329.959-53.993c39.277-8.906,79.73-20.772,104.986-41.995c0-0.667,0-1.333,0-2   c0.891-0.443,1.789-0.878,2-2C514.37,180.984,516.095,180.376,515.941,177.889z M495.943,368.865   c-2.17-10.868,20.567-13.162,20.998-27.997c2.329-50.997,0.336-106.317,1-158.98c-22.702,25.365-68.085,38.115-110.986,47.994   c-103.156,23.753-228.526,32.342-328.959,53.994c0.664,54.662-1.33,111.982,1,164.979c3.163-0.164,3.342,2.657,6.999,1.999   c4.366-0.033,7.797,0.869,10.999,2c12.492,3.839,27.344,5.318,41.995,6.999c34.206,3.123,66.147,8.51,98.988,12.999   c0.221,0.778,0.837,1.162,2,0.999c2.279-0.279,3.759,0.241,4,2c-52.615,11.711-116.128,12.521-165.979,26.997   c0,54.326,0,108.652,0,162.979c110.457-21.4,240.615-30.017,345.957-56.993c34.498-8.835,71.053-17.969,90.988-43.994   c5.719-52.261,3.524-122.019,1-175.978C512.505,378.966,503.894,374.246,495.943,368.865z" id="path19" style="fill:#df0000;fill-opacity:0.25098041"/>
	<path fill-rule="evenodd" clip-rule="evenodd" fill="#D76262" d="M85.995,450.854c-3.657,0.658-3.836-2.163-6.999-1.999   c-2.33-52.997-0.336-110.317-1-164.979c100.433-21.651,225.803-30.241,328.959-53.994c42.901-9.878,88.284-22.628,110.986-47.994   c-0.664,52.663,1.329,107.983-1,158.98c-0.431,14.835-23.168,17.129-20.998,27.997c-2.038-0.294-1.96-2.706-3.999-3   c0-0.333,0-0.667,0-1c7.671-6.116,21.416-11.486,23.997-22.997c8.838-39.412-6.644-112.06,0-155.98   c-50.655,43.333-145.627,51.013-226.972,66.992c-69.161,11.495-145.552,15.762-209.974,31.996c1.326,53.333-2.657,111.977,2,161.98   c0,0.333,0,0.667,0,1C81.32,450.196,85.357,448.826,85.995,450.854z" id="path21" style="fill:#d70000;fill-opacity:0.50196081"/>
	<path fill-rule="evenodd" clip-rule="evenodd" fill="#D76262" d="M96.993,452.854c13.946,2.386,28.904,3.759,41.995,6.999   C124.337,458.172,109.485,456.693,96.993,452.854z" id="path23"/>
	<path fill-rule="evenodd" clip-rule="evenodd" fill="#D76262" d="M325.964,332.869c-4.899-0.234-7.57,1.762-12.998,1   c-4.087,7.579-1.078,22.252-2,32.996c-11.901,2.097-27.492,0.504-40.995,1c-2.682-8.65,0.602-23.266-2-31.996   c-3.424-1.908-9.417-1.248-12.999-3c10.647-13.35,22.809-25.185,34.996-36.996C303.621,306.553,314.685,319.818,325.964,332.869z    M319.965,331.869c1,0,2,0,3,0c-3.023-5.651-11.52-14.471-17.998-19.998c-4.736-4.929-8.597-10.733-14.998-13.998   c-8.862,11.497-27.151,24.138-30.997,33.996c2.057,2.61,10.037-0.705,11.999,2c0,10.665,0,21.331,0,31.996   c11.315,1.732,28.945,1.799,38.995-1c0-7.999,0-15.998,0-23.997c0-2.333,0-4.666,0-6.999   C312.677,332.58,315.519,331.422,319.965,331.869z" id="path25"/>
	<path fill-rule="evenodd" clip-rule="evenodd" fill="#D10101" d="M309.966,364.865c-10.05,2.798-27.68,2.732-38.995,1   c0-10.665,0-21.331,0-31.996c-1.961-2.705-9.942,0.61-11.999-2c3.845-9.857,22.135-22.499,30.997-33.996   c6.401,3.265,10.262,9.069,14.998,13.998c-5.256-3.743-8.96-9.037-14.998-11.998c-2.332,18.999-0.335,42.327-1,62.992   C294.863,364.637,302.192,364.974,309.966,364.865z" id="path27"/>
	<path fill-rule="evenodd" clip-rule="evenodd" fill="#F00000" d="M304.967,311.872c6.479,5.526,14.975,14.347,17.998,19.998   c-1,0-2,0-3,0c-1.387-2.28-6.96-0.373-9.999-1c-1.22,1.513-1.963,8.612,0,9.999c0,7.999,0,15.998,0,23.997   c-7.774,0.108-15.104-0.228-20.997-2c0.665-20.665-1.332-43.993,1-62.992C296.007,302.834,299.711,308.128,304.967,311.872z" id="path29"/>
	<path fill-rule="evenodd" clip-rule="evenodd" fill="#D76262" d="M515.941,388.862c2.524,53.959,4.719,123.717-1,175.978   c-19.936,26.025-56.49,35.159-90.988,43.994c-105.342,26.977-235.5,35.593-345.957,56.993c0-54.327,0-108.653,0-162.979   c49.851-14.476,113.364-15.286,165.979-26.997c-0.241-1.759-1.72-2.279-4-2c-1.162,0.163-1.779-0.221-2-0.999   c5.093-0.428,7.797,1.535,10.999,2.999c-52.952,13.04-118.654,13.33-169.979,27.997c0,53.326,0,106.652,0,159.979   c63.234-12.756,141.474-19.173,208.974-30.996c41.678-5.889,85.978-13.356,125.984-22.997   c39.137-9.431,79.623-18.396,100.987-46.994c2.323-51.003,0.34-106.312,1-158.98c0-1,0-2,0-3   C515.941,396.861,515.941,392.862,515.941,388.862z" id="path31"/>
	<path fill-rule="evenodd" clip-rule="evenodd" fill="#D76262" d="M312.966,567.839c-12.665,0-25.33,0-37.996,0   c-2.639,3.694,0.639,13.305-2,16.998c-18.962-7.035-36.165-15.828-52.994-24.997c15.988-10.342,34.69-17.97,52.994-25.996   c2.102,3.896,0.5,11.497,1,16.998c11.749,1.196,32.118,2.95,40.995-2c0.333,0,0.666,0,0.999,0c5.665-7.001,1.917-23.414,3-34.996   c0-2.666,0-5.332,0-7.999c5.333,0,10.665,0,15.998,0c0.982,22.39,6.597,57.867-13.998,61.992   C318.298,567.839,315.632,567.839,312.966,567.839z M270.971,581.838c2.061-3.938,0.015-11.984,3-14.998   c22.085-1.579,53.408,6.081,58.992-11.999c-0.639-15.025,1.296-32.625-1-45.994c-2.885-1.115-6.199-1.8-9.998-2   c-4.371,9.294-0.881,26.449-2,38.995c-5.651,11.72-33.617,6.325-47.994,5.999c0.719-5.718-1.067-8.932-1-13.998   c-18.69,4.308-31.833,14.161-47.994,20.998C236.698,568.784,253.063,576.083,270.971,581.838z" id="path33"/>
	<path fill-rule="evenodd" clip-rule="evenodd" fill="#D10101" d="M287.969,632.832c-67.5,11.823-145.74,18.24-208.974,30.996   c0-53.327,0-106.653,0-159.979c51.325-14.667,117.027-14.957,169.979-27.997c49.066-6.955,100.817-14.089,147.981-24.997   c45.871-10.608,93.308-19.878,118.985-49.993c0,1,0,2,0,3c-55.191,48.795-154.142,53.833-240.97,70.991   c2.856,2.139,10.933,0.972,13.999,0c0,24.331,0,48.661,0,72.991c6.833,2.168,21.304,2.76,25.997,1   c-8.877,4.95-29.247,3.196-40.995,2c-0.5-5.501,1.102-13.102-1-16.998c-18.304,8.026-37.006,15.654-52.994,25.996   c16.829,9.169,34.032,17.962,52.994,24.997c2.639-3.693-0.639-13.304,2-16.998c12.666,0,25.331,0,37.996,0   c-5.678,2.322-15.656,0.342-22.997,1C286.985,587.853,290.949,613.814,287.969,632.832z" id="path35"/>
	<path fill-rule="evenodd" clip-rule="evenodd" fill="#D10101" d="M320.965,567.839c20.595-4.125,14.98-39.603,13.998-61.992   c-5.333,0-10.665,0-15.998,0c0,2.667,0,5.333,0,7.999c-2.27-1.063-0.381-6.285-1-8.999c4.291-1.317,13.797-1.821,17.998,0   C336.324,527.231,343.996,565.521,320.965,567.839z" id="path37"/>
	<path fill-rule="evenodd" clip-rule="evenodd" fill="#D10101" d="M80.995,446.855c-4.657-50.003-0.673-108.646-2-161.98   c64.422-16.234,140.813-20.5,209.974-31.996c0,8.666,0,17.331,0,25.997c23.018,18.985,46.394,42.918,62.992,64.992   c-1.514,1.22-8.612,1.963-9.999,0c3.642,0.309,6.507-0.159,8.999-1c-19.081-21.58-39.412-41.911-60.992-60.992   c-19.273,20.397-44.707,39.938-58.993,61.992c9.004,0.661,20.656-1.325,27.996,1c2.886,8.78-0.885,24.216,2,32.996   c14.665,0,29.33,0,43.995,0c-3.355,2.311-10.982,0.351-15.998,1c0,10.666,0,21.331,0,31.996c-3.402-0.069-6.977-0.311-7.999,2   c77.093-9.229,150.284-22.36,210.974-47.994c0,0.333,0,0.667,0,1C378.106,416.006,216.466,418.346,80.995,446.855z" id="path39"/>
	<path fill-rule="evenodd" clip-rule="evenodd" fill="#F00000" d="M312.966,567.839c2.666,0,5.332,0,7.999,0   c23.03-2.318,15.358-40.608,14.998-62.992c-4.201-1.821-13.707-1.317-17.998,0c0.619,2.714-1.27,7.936,1,8.999   c-1.083,11.582,2.665,27.995-3,34.996c-0.333,0-0.666,0-0.999,0c-4.693,1.76-19.165,1.168-25.997-1c0-24.33,0-48.66,0-72.991   c-3.066,0.972-11.142,2.139-13.999,0c86.829-17.157,185.779-22.195,240.97-70.991c-0.66,52.667,1.323,107.977-1,158.98   c-21.364,28.599-61.851,37.563-100.987,46.994c-40.007,9.641-84.307,17.108-125.984,22.997c2.979-19.018-0.984-44.979,2-63.992   C297.31,568.181,307.289,570.162,312.966,567.839z" id="path41"/>
</g>
</svg>